<?xml version="1.0" standalone="no"?>
<!DOCTYPE svg PUBLIC "-//W3C//DTD SVG 1.1//EN" "http://www.w3.org/Graphics/SVG/1.1/DTD/svg11.dtd" >
<svg xmlns="http://www.w3.org/2000/svg">
<metadata>
This is a custom SVG webfont generated by Font Squirrel.
Copyright   :  infofontfontde  Copyright Ole Schaefer 1999
</metadata>
<defs>
<font id="FagoCoMediumBold" horiz-adv-x="962" >
<font-face units-per-em="2048" ascent="1638" descent="-410" />
<missing-glyph horiz-adv-x="489" />
<glyph unicode=" "  horiz-adv-x="489" />
<glyph unicode="&#x09;" horiz-adv-x="489" />
<glyph unicode="&#xa0;" horiz-adv-x="489" />
<glyph unicode="!" horiz-adv-x="606" d="M149 119q0 -66 46 -111q43 -47 108 -49q70 2 111 49q41 45 43 111q-2 67 -43 112t-111 45q-65 0 -108 -45q-46 -45 -46 -112zM180 1433l41 -942h166l39 942h-246z" />
<glyph unicode="&#x22;" horiz-adv-x="883" d="M123 1433l45 -573h170l45 573h-260zM500 1433l45 -573h170l45 573h-260z" />
<glyph unicode="#" horiz-adv-x="1237" d="M92 338h205v-338h192v338h258v-338h193v338h205v178h-205v401h203l8 179h-211v337h-193v-337h-258v337h-192v-337h-205v-179h205v-401h-205v-178zM489 516v401h258v-401h-258z" />
<glyph unicode="$" horiz-adv-x="707" d="M57 1018q2 -115 49 -195q43 -78 99 -133l106 -108q51 -45 88 -97q35 -53 37 -131q-2 -106 -49 -141t-121 -33q-57 0 -125 21q-73 18 -75 20v-184q2 -2 67 -17q64 -14 143 -20v-235h154v251q98 27 158 107q59 80 61 231q-2 125 -53 209q-51 82 -119 146l-100 106 q-41 41 -74 92q-37 51 -37 125q0 88 45 123q43 33 101 33q71 -2 127 -17q53 -20 55 -20v176q-4 4 -143 33v237h-154v-247q-102 -23 -170 -103q-70 -82 -70 -229z" />
<glyph unicode="%" horiz-adv-x="1606" d="M68 1081q0 -108 26 -182q23 -72 62 -115q41 -41 94 -59t112 -18q129 -3 211 79q82 84 84 295q-2 213 -84 295q-82 80 -211 78q-120 2 -204 -76q-88 -82 -90 -297zM250 1081q0 144 31 199q26 51 81 49q60 2 86 -49q27 -51 27 -199q0 -137 -27 -190q-26 -58 -86 -55 q-59 0 -86 57q-26 57 -26 188zM422 -20h188l574 1474h-189zM946 352q0 -108 27 -182q22 -72 61 -115q41 -43 94 -57q54 -18 113 -18q129 0 211 79q41 43 63 117q23 70 23 176q-2 211 -86 297q-82 80 -211 78q-57 0 -111 -16q-53 -19 -94 -62q-88 -82 -90 -297zM1128 352 q0 146 31 201q27 51 82 49q59 2 86 -49q27 -53 27 -201q0 -135 -27 -188q-27 -58 -86 -55q-59 -3 -86 55q-27 57 -27 188z" />
<glyph unicode="&#x26;" horiz-adv-x="1274" d="M82 365q2 -216 127 -302q121 -83 289 -83q204 0 370 161l117 -161l258 20l-242 305q154 238 148 567h-203q6 -245 -63 -415l-236 315q72 27 160 111q41 43 69 106q27 62 27 143q-4 320 -344 322q-346 0 -352 -346q0 -76 29 -135q24 -58 59 -99q35 -38 67 -61 q31 -20 41 -31q-10 2 -159 -90q-29 -24 -58 -55q-28 -31 -53 -72q-51 -82 -51 -200zM295 375q0 92 31 149q28 58 67 90q88 58 94 56l285 -394q-100 -133 -270 -137q-203 -4 -207 236zM416 1108q0 90 32 143q33 53 109 53q80 0 109 -51q28 -51 28 -135q-2 -104 -53 -166 q-51 -63 -104 -82q-31 23 -72 80q-19 31 -33 70q-16 39 -16 88z" />
<glyph unicode="'" horiz-adv-x="506" d="M123 1433l45 -573h170l45 573h-260z" />
<glyph unicode="(" horiz-adv-x="557" d="M72 676q8 -389 143 -678q57 -139 100 -221q41 -82 43 -84h199q-8 6 -125 291q-119 278 -127 692q8 416 127 694q117 283 125 289h-199q-2 0 -43 -82q-43 -82 -100 -221q-135 -291 -143 -680z" />
<glyph unicode=")" horiz-adv-x="557" d="M0 -307h199q0 2 47 84q43 82 96 221q133 289 143 678q-10 389 -143 680q-53 139 -96 221l-47 82h-199q8 -6 127 -289q117 -278 125 -694q-8 -414 -125 -692q-119 -285 -127 -291z" />
<glyph unicode="*" horiz-adv-x="903" d="M82 1005l104 -174l209 172l-45 -266h205l-45 266l207 -172l104 174l-258 101l258 98l-104 176l-207 -174l45 268h-205l45 -268l-209 174l-104 -176l258 -98z" />
<glyph unicode="+" horiz-adv-x="1147" d="M129 590h342v-354h213v354h334v203h-334v344h-213v-344h-342v-203z" />
<glyph unicode="," horiz-adv-x="575" d="M170 -328h176l102 594h-241z" />
<glyph unicode="-" horiz-adv-x="932" d="M129 590h674v192h-674v-192z" />
<glyph unicode="." horiz-adv-x="606" d="M149 139q0 -65 46 -110q43 -47 108 -49q70 2 111 49q41 45 43 110q-2 66 -43 111t-111 45q-65 0 -108 -45q-46 -45 -46 -111z" />
<glyph unicode="/" horiz-adv-x="534" d="M51 -20h187l245 1474h-186z" />
<glyph unicode="0" horiz-adv-x="1003" d="M88 573q0 -182 39 -299q18 -59 43 -102q25 -45 53 -80q60 -63 133 -88q72 -24 146 -24q75 0 149 22q74 23 133 86q31 35 56 80q22 43 41 102q34 117 34 303q-2 187 -36 306q-19 61 -43 106q-25 43 -58 74q-61 63 -133 88q-74 20 -143 20q-68 0 -140 -20q-71 -23 -133 -86 q-30 -31 -55 -74q-25 -45 -45 -106q-18 -58 -29 -136q-12 -75 -12 -172zM301 573q0 248 53 349q54 96 148 94q96 2 149 -94q51 -101 51 -349q-2 -258 -55 -350q-57 -90 -145 -88q-88 -2 -142 88q-59 92 -59 350z" />
<glyph unicode="1" horiz-adv-x="598" d="M20 833l216 91v-924h212v1147h-161l-267 -135v-179z" />
<glyph unicode="2" horiz-adv-x="762" d="M57 0h600l21 184h-399l98 92q110 99 205 226q94 129 98 305q-2 194 -96 278q-99 82 -258 82q-58 0 -105 -6q-49 -8 -84 -18q-71 -27 -71 -29v-164q2 2 75 23q72 18 164 20q94 0 129 -49q33 -53 33 -151q-2 -129 -74 -230q-71 -100 -162 -190l-174 -189v-184z" />
<glyph unicode="3" horiz-adv-x="793" d="M41 -113v-163q137 2 268 30q129 27 225 92q78 52 125 138q45 86 45 208q-2 158 -79 234q-78 76 -183 92q99 27 164 107q64 77 66 208q-2 191 -107 265q-104 71 -268 69q-105 -2 -178 -20q-76 -21 -78 -23v-164q2 0 86 21q80 14 164 16q170 2 168 -184q0 -121 -58 -172 q-59 -51 -157 -49h-107v-162h105q116 0 182 -49q65 -53 67 -182q0 -95 -30 -148q-31 -55 -88 -88q-66 -39 -154 -53q-88 -16 -178 -23z" />
<glyph unicode="4" horiz-adv-x="944" d="M41 70h487v-320l213 31v289h168l21 188h-189v500h-174l-39 -500h-268l176 889h-239l-156 -909v-168z" />
<glyph unicode="5" horiz-adv-x="854" d="M102 442l97 -32q2 2 65 36q58 35 137 37q90 0 129 -51q33 -53 33 -178q-2 -193 -112 -270q-62 -45 -150 -68q-88 -22 -184 -29v-165q266 6 456 122q199 121 203 424q0 123 -26 199q-27 76 -74 117q-43 43 -96 57q-56 12 -109 12q-72 -2 -119 -20q-49 -23 -49 -25l16 350 h404l24 189h-624z" />
<glyph unicode="6" horiz-adv-x="967" d="M88 580q0 -183 33 -299q31 -119 86 -185q57 -65 131 -90q72 -26 153 -26q74 0 146 22q72 21 129 72q59 53 94 147t35 240q0 129 -25 213q-26 86 -73 133q-97 90 -238 88q-61 0 -106 -12q-48 -13 -78 -31q-64 -43 -64 -45q41 248 162 350q121 100 315 109v165 q-370 -24 -536 -264q-166 -243 -164 -587zM301 553q2 98 4 113q0 2 60 36q55 33 145 35q96 2 135 -57q37 -62 37 -223q0 -195 -49 -260q-25 -33 -60 -48q-36 -14 -82 -14q-94 -4 -141 84q-49 88 -49 334z" />
<glyph unicode="7" horiz-adv-x="713" d="M14 958h496q-385 -428 -367 -1177l213 29q-4 391 62 645q67 252 280 524v168h-684v-189z" />
<glyph unicode="8" horiz-adv-x="1016" d="M88 350q2 -205 121 -289q115 -84 299 -81q168 0 291 88q125 88 129 290q0 93 -29 154t-74 100q-43 39 -88 64q-45 22 -73 31q20 12 57 34q39 23 76 60q41 39 67 94q27 55 27 129q0 102 -33 170q-35 67 -90 106t-123 58q-68 14 -137 14q-70 0 -135 -14q-68 -19 -125 -58 q-121 -79 -123 -278q0 -82 31 -141q26 -58 63 -95q39 -36 74 -55q33 -20 47 -29q-23 -8 -61 -32q-41 -23 -84 -66q-46 -41 -74 -102q-33 -64 -33 -152zM301 358q0 66 18 115q17 47 41 80q27 33 52 53q22 19 39 29l71 -29q37 -12 74 -29q35 -18 61 -45q29 -26 43 -65 q15 -43 15 -105q-2 -231 -207 -229q-205 -2 -207 225zM338 1018q-4 200 170 203q172 0 170 -201q0 -58 -14 -98q-17 -43 -41 -74q-23 -27 -46 -45q-24 -19 -40 -29l-80 33q-49 22 -82 78q-37 53 -37 133z" />
<glyph unicode="9" horiz-adv-x="971" d="M72 694q4 -444 374 -446q56 0 99 14q41 10 67 23q56 32 56 34q-48 -382 -453 -430v-167q657 22 668 823q2 612 -412 622q-393 -8 -399 -473zM285 713q-2 139 43 221q43 78 151 80q133 -4 172 -162q35 -158 25 -377q-2 -2 -60 -33q-57 -34 -141 -37q-115 0 -151 86 q-41 82 -39 222z" />
<glyph unicode=":" horiz-adv-x="606" d="M149 139q0 -65 46 -110q43 -47 108 -49q70 2 111 49q41 45 43 110q-2 66 -43 111t-111 45q-65 -2 -108 -43q-46 -43 -46 -113zM149 948q0 -65 46 -110q43 -48 108 -48q70 0 111 48q41 45 43 110q-2 68 -43 113t-111 45q-65 0 -108 -45q-46 -43 -46 -113z" />
<glyph unicode=";" horiz-adv-x="614" d="M170 -328h176l102 594h-241zM180 948q0 -65 47 -110q43 -48 109 -48q69 0 110 48q41 45 41 110q0 68 -41 113t-110 45q-66 0 -109 -45q-47 -45 -47 -113z" />
<glyph unicode="&#x3c;" horiz-adv-x="1096" d="M129 600l838 -436v239l-633 287l633 279v239l-838 -436v-172z" />
<glyph unicode="=" horiz-adv-x="1096" d="M129 381h838v203h-838v-203zM129 788h838v203h-838v-203z" />
<glyph unicode="&#x3e;" horiz-adv-x="1096" d="M129 164l838 436v172l-838 436v-239l633 -279l-633 -287v-239z" />
<glyph unicode="?" horiz-adv-x="682" d="M82 1235q2 0 72 20q63 19 129 21q55 0 86 -21q30 -24 30 -88q0 -63 -26 -108q-25 -47 -64 -92q-45 -50 -82 -127q-41 -76 -41 -222q0 -57 11 -127h190q-14 76 -14 138q0 51 10 90q6 37 18 65q27 54 64 92q26 31 51 60q25 26 47 59q43 66 45 176q-2 158 -78 224 q-75 59 -206 59q-95 -2 -166 -25q-74 -22 -76 -24v-170zM145 119q0 -66 47 -111q44 -47 109 -49q70 2 111 49q41 45 41 111q0 67 -41 112t-111 45q-65 0 -109 -45q-47 -45 -47 -112z" />
<glyph unicode="@" horiz-adv-x="1851" d="M88 463q6 -475 244 -676q229 -199 532 -197q178 2 293 23q113 20 115 20v175q-2 0 -119 -25q-115 -23 -289 -25q-100 0 -200 37q-103 35 -191 117q-186 158 -192 551q2 399 200 612q193 215 506 217q571 0 584 -624q0 -254 -54 -363q-53 -110 -149 -108q-68 0 -96 65 q-31 62 -15 170l95 571h-150l-41 -63q0 2 -47 41q-49 37 -154 39q-196 -2 -321 -178q-129 -174 -131 -455q0 -100 29 -172q24 -70 65 -113t92 -61q49 -21 103 -21q79 0 141 39q59 37 98 84q80 113 80 121q-4 -8 37 -119q25 -45 76 -79q51 -39 139 -39q379 0 395 641 q-2 378 -213 583q-211 201 -563 203q-377 -2 -633 -260q-262 -258 -266 -731zM713 395q2 211 80 340q73 127 184 129q72 -2 108 -24q35 -23 35 -25l-65 -381q-2 -8 -66 -123q-31 -47 -72 -86q-43 -41 -92 -41q-51 0 -80 47q-32 50 -32 164z" />
<glyph unicode="A" d="M6 0h230l63 319h365l63 -319h229l-352 1433h-248zM328 489l90 461q57 328 63 367q6 -39 64 -367l88 -461h-305z" />
<glyph unicode="B" horiz-adv-x="1003" d="M149 0h310h13q443 0 443 392v16q-2 163 -79 241q-80 78 -197 96q47 13 90 35q43 23 74 60q69 73 71 233v15q0 345 -408 345h-7h-310v-1433zM362 158v503h56q145 0 215 -53q69 -55 69 -200q0 -142 -59 -197q-59 -53 -181 -53h-9h-91zM362 813v463h72h11q116 0 167 -39 q49 -43 49 -172q0 -131 -51 -191q-55 -61 -192 -61h-56z" />
<glyph unicode="C" horiz-adv-x="762" d="M88 707q0 -238 39 -381q37 -146 96 -222q62 -73 135 -100q72 -24 146 -24q96 2 160 24q65 21 67 23v182q-2 -2 -74 -25q-67 -22 -149 -24h-3q-92 0 -145 121q-59 124 -59 426q2 325 72 452q30 68 71 94q41 25 84 25q86 -2 144 -21q57 -20 59 -22v174q0 2 -51 24 q-53 19 -150 21q-65 0 -141 -25q-78 -26 -145 -104q-66 -78 -109 -227q-47 -150 -47 -391z" />
<glyph unicode="D" horiz-adv-x="1024" d="M149 0h259q114 0 212 29q97 26 166 102q72 78 113 221q37 144 37 375q0 235 -41 377q-43 141 -119 213q-74 73 -168 96q-96 20 -205 20h-254v-1433zM362 176v1081h70q68 0 123 -16q55 -20 92 -78q39 -53 57 -160q19 -106 19 -276q0 -340 -72 -448q-37 -58 -94 -80 q-57 -23 -137 -23h-58z" />
<glyph unicode="E" horiz-adv-x="827" d="M149 0h623v184h-410v496h363v170h-363v399h404l10 184h-627v-1433z" />
<glyph unicode="F" horiz-adv-x="793" d="M149 0h213v680h363v170h-363v395h383l27 188h-623v-1433z" />
<glyph unicode="G" horiz-adv-x="1075" d="M88 707q0 -265 51 -412q49 -150 121 -217q76 -68 156 -84q78 -14 141 -14q147 4 260 40q115 39 119 41v789h-397l10 -168h174v-502q-2 -2 -47 -12q-49 -14 -113 -14q-41 0 -86 16t-86 70q-37 53 -63 165q-27 113 -27 302q0 180 29 292q28 113 71 174q45 62 101 84 q53 21 108 21q123 -2 201 -29q76 -28 78 -31v172q0 3 -68 33q-69 29 -211 31q-78 0 -166 -23q-88 -26 -170 -104q-79 -78 -131 -227q-55 -150 -55 -393z" />
<glyph unicode="H" horiz-adv-x="1106" d="M149 0h213v680h381v-680h213v1433h-213v-583h-381v583h-213v-1433z" />
<glyph unicode="I" horiz-adv-x="516" d="M149 0h218v1433h-218v-1433z" />
<glyph unicode="J" horiz-adv-x="598" d="M0 10l57 -14q52 -14 127 -16q54 0 103 12q47 12 84 41q37 30 59 82q18 51 18 131v1187h-212v-1165q0 -65 -25 -88q-23 -24 -65 -24h-7q-33 0 -82 12q-55 10 -57 12v-170z" />
<glyph unicode="K" horiz-adv-x="967" d="M149 0h213v1433h-213v-1433zM385 772l328 -792l243 20l-364 778l344 655h-250z" />
<glyph unicode="L" horiz-adv-x="700" d="M149 0h510l25 186h-322v1247h-213v-1433z" />
<glyph unicode="M" horiz-adv-x="1393" d="M139 0h211l12 670q-10 364 -14 424q12 -41 119 -314l229 -510l223 504q109 279 121 320q-4 -48 -12 -418l14 -676h211l-49 1433h-186l-322 -792l-321 792h-187z" />
<glyph unicode="N" horiz-adv-x="1085" d="M149 0h213v616q-2 142 -16 303q-16 168 -18 177q10 -45 157 -453l265 -643h186v1433h-213v-581q20 -444 35 -500q-2 4 -43 154q-41 141 -105 299l-258 628h-203v-1433z" />
<glyph unicode="O" horiz-adv-x="991" d="M72 717q0 -244 39 -391q38 -148 100 -224q63 -75 137 -98q76 -24 148 -24q77 0 151 24q76 27 137 100q64 76 101 224q34 149 34 389q-2 241 -36 389q-37 149 -101 223q-61 76 -137 102q-74 23 -149 23q-72 0 -146 -21q-74 -24 -137 -100q-61 -76 -100 -221 q-41 -147 -41 -395zM285 717q0 348 61 469q29 63 68 88q37 22 82 22q49 0 90 -26q37 -27 65 -95q56 -129 56 -458q-3 -348 -64 -467q-31 -64 -68 -86q-38 -27 -79 -27h-6q-81 0 -140 113q-63 121 -65 467z" />
<glyph unicode="P" horiz-adv-x="926" d="M149 0h213v455q250 6 381 118q131 111 131 369v26q0 465 -443 465h-13h-269v-1433zM362 606v660h64h8q117 0 172 -58q55 -65 55 -266v-16q0 -150 -55 -228q-59 -82 -244 -92z" />
<glyph unicode="Q" horiz-adv-x="991" d="M72 717q0 -213 32 -350q29 -140 78 -222q51 -77 113 -114q59 -39 125 -47l82 -373h260l-191 373q70 8 131 47q62 35 111 116q49 82 78 222q28 137 28 348q-2 241 -36 389q-37 149 -101 223q-61 76 -137 102q-74 23 -149 23q-72 0 -146 -21q-74 -24 -137 -100 q-61 -76 -100 -221q-41 -147 -41 -395zM285 717q0 348 61 469q29 63 68 88q37 22 82 22q49 0 90 -26q37 -27 65 -95q53 -129 56 -458q0 -176 -17 -289q-16 -117 -45 -180q-29 -64 -65 -90q-41 -27 -84 -27t-80 27q-37 26 -68 90q-63 121 -63 469z" />
<glyph unicode="R" horiz-adv-x="983" d="M149 0h213v604l125 10q31 -16 66 -73q33 -62 55 -174l74 -367h233l-96 391q-20 88 -53 162t-96 108q104 43 163 134q60 88 62 237q-2 232 -115 320q-112 81 -307 81h-14h-310v-1433zM362 758v506h82h11q118 0 174 -41q53 -45 53 -191q0 -86 -18 -137q-21 -55 -62 -82 q-39 -27 -98 -39q-62 -10 -142 -16z" />
<glyph unicode="S" horiz-adv-x="754" d="M61 16q2 -2 72 -16q64 -18 156 -20q71 0 143 16q70 14 129 55q59 43 96 121q35 78 35 203q-2 145 -55 237q-55 90 -131 152l-109 96q-49 43 -82 96q-36 52 -36 131q0 99 53 146q47 45 125 45q77 -2 139 -21q63 -20 65 -20v180q-2 0 -61 21q-27 6 -68 12q-38 4 -86 4h-7 q-133 0 -244 -80q-121 -86 -125 -303q2 -123 49 -205q45 -82 104 -137l119 -109q31 -24 55 -49q25 -24 43 -55q39 -57 39 -154q0 -59 -14 -96q-17 -39 -45 -63q-55 -41 -134 -41h-7q-33 0 -68 8q-37 6 -72 12q-76 19 -78 21v-187z" />
<glyph unicode="T" horiz-adv-x="756" d="M0 1245h297v-1245h213v1245h272l25 188h-807v-188z" />
<glyph unicode="U" horiz-adv-x="1036" d="M139 369q0 -211 97 -301q92 -88 282 -88h16q361 0 363 389v1064h-213v-1089q0 -192 -161 -192h-5q-90 0 -129 49q-37 43 -37 134v9v1089h-213v-1064z" />
<glyph unicode="V" horiz-adv-x="858" d="M-20 1433l313 -1433h274l312 1433h-244l-144 -905q-55 -385 -61 -438q-6 53 -61 438l-146 905h-243z" />
<glyph unicode="W" horiz-adv-x="1468" d="M10 1433l223 -1433h291l146 899q57 385 63 436q6 -51 66 -436l145 -899h291l223 1433h-235l-95 -901q-36 -378 -41 -436q-6 58 -53 436l-143 901h-314l-143 -901q-49 -376 -55 -436q-4 53 -37 436l-96 901h-236z" />
<glyph unicode="X" horiz-adv-x="868" d="M-20 0h256l198 604l197 -604h258l-316 756l295 677h-260l-174 -542l-174 542h-260l297 -677z" />
<glyph unicode="Y" horiz-adv-x="868" d="M-20 1433l348 -843v-590h213v590l348 843h-252l-203 -655l-203 655h-251z" />
<glyph unicode="Z" horiz-adv-x="793" d="M78 0h635l12 176h-434l430 1098v159h-643v-176h430l-430 -1097v-160z" />
<glyph unicode="[" horiz-adv-x="618" d="M149 -307h459v184h-246v1597h246v185h-459v-1966z" />
<glyph unicode="\" horiz-adv-x="534" d="M51 1454l246 -1474h186l-245 1474h-187z" />
<glyph unicode="]" horiz-adv-x="618" d="M10 -123v-184h459v1966h-459v-185h246v-1597h-246z" />
<glyph unicode="^" horiz-adv-x="913" d="M61 860h230l166 533l166 -533h229l-291 717h-209z" />
<glyph unicode="_" horiz-adv-x="1003" d="M0 -215v-195h1003v195h-1003z" />
<glyph unicode="`" horiz-adv-x="594" d="M51 1587l285 -317h207l-221 317h-271z" />
<glyph unicode="a" horiz-adv-x="922" d="M78 330q0 -111 28 -181q27 -69 70 -106q45 -37 94 -49q49 -14 99 -14q49 2 88 20q37 16 63 39q53 53 55 57l31 -96h176v805q0 98 -24 160q-29 61 -72 90q-45 30 -98 43q-56 8 -113 8q-129 -2 -219 -29q-94 -26 -96 -28v-170q4 2 94 28q86 27 176 29q74 0 107 -25 q32 -26 32 -100v-133h-137q-47 0 -106 -10q-60 -15 -117 -52q-57 -34 -92 -104q-39 -70 -39 -182zM291 336q0 127 49 170q43 39 120 39h15l94 2v-320q-2 -2 -47 -41q-45 -43 -108 -45h-5q-50 0 -81 37q-37 37 -37 158z" />
<glyph unicode="b" horiz-adv-x="1003" d="M149 27q5 -2 113 -23q103 -22 215 -24q70 0 148 16q75 16 141 74q67 57 108 172q41 116 41 311q0 188 -32 303q-31 113 -82 166q-49 55 -107 72q-59 12 -112 12q-50 0 -91 -12q-40 -13 -69 -29q-60 -43 -60 -45v454h-213v-1447zM362 156v718q0 2 50 31q49 27 120 29 q35 0 66 -6q31 -9 55 -45q25 -35 37 -113q12 -80 12 -217t-18 -219t-51 -125q-31 -41 -68 -53q-37 -15 -71 -15q-41 0 -84 8q-45 7 -48 7z" />
<glyph unicode="c" horiz-adv-x="711" d="M88 537q0 -189 41 -301q39 -115 98 -168q60 -54 125 -72q64 -16 115 -16q88 2 149 20q62 18 64 20v183q-2 -2 -62 -21q-61 -22 -141 -24h-3q-67 0 -118 80q-53 81 -55 299q0 122 21 200q16 80 43 121q28 43 63 59q31 15 66 15q71 -2 129 -21q55 -20 57 -22v174 q0 2 -47 22q-51 19 -135 21q-52 0 -119 -12q-70 -17 -135 -74q-66 -58 -109 -172q-47 -115 -47 -311z" />
<glyph unicode="d" horiz-adv-x="1024" d="M88 543q0 -191 39 -303q35 -115 88 -170q57 -58 117 -74q59 -16 108 -16q60 2 105 18q47 16 78 39q61 49 61 53l27 -90h163v1474h-213v-440q-12 19 -59 45q-47 25 -121 27q-45 0 -108 -14q-31 -9 -64 -25q-33 -18 -67 -49q-64 -53 -107 -168q-47 -115 -47 -307zM301 543 q0 129 21 207q18 79 49 118q30 41 67 56q35 10 72 10q70 -2 110 -25q41 -26 41 -28v-660q-2 -2 -51 -35q-51 -34 -121 -37q-30 0 -63 15q-33 10 -61 49q-27 39 -43 119q-21 80 -21 211z" />
<glyph unicode="e" horiz-adv-x="891" d="M88 537q0 -187 39 -299q37 -111 96 -168q62 -54 135 -72q72 -18 144 -18q96 2 172 20q73 18 76 20v177q-5 -2 -91 -21q-84 -20 -157 -20q-35 0 -70 10q-37 10 -67 43q-29 33 -46 96q-20 64 -20 170h512l2 68v38q0 289 -88 408q-92 117 -247 117h-5q-74 0 -143 -23 q-70 -26 -123 -90q-117 -123 -119 -456zM301 612q2 193 45 273q42 73 123 73h4h4q65 0 96 -67q33 -74 33 -279h-305z" />
<glyph unicode="f" horiz-adv-x="582" d="M16 932h131v-932h213v932h170l25 153h-195v117q-2 127 111 127q61 0 121 -14q59 -17 61 -17v162q0 2 -57 19q-57 14 -150 16h-7q-118 0 -201 -62q-89 -67 -91 -237v-111h-131v-153z" />
<glyph unicode="g" horiz-adv-x="913" d="M61 -152q0 -139 101 -198q96 -60 258 -60h21q435 0 435 332q-2 154 -83 215q-86 60 -230 68l-186 18q-25 4 -43 10q-19 5 -31 13q-29 18 -29 57q2 35 29 57q23 23 25 23q0 -12 116 -18h11q150 0 241 83q92 89 94 291q0 109 -65 199h172v147h-299q-37 0 -70 13 q-34 8 -84 8h-7q-136 0 -234 -80q-105 -84 -107 -285q0 -110 37 -184q35 -74 90 -119q-37 -20 -78 -67t-43 -121q0 -62 27 -101q25 -38 61 -61q-43 -33 -81 -92q-46 -57 -48 -148zM258 -121q0 60 23 105q20 43 43 69q4 -2 43 -6l155 -14q74 -4 115 -29q37 -29 37 -102v-5 q0 -163 -248 -163h-6q-160 0 -162 145zM307 741q0 125 37 176q33 50 100 50q76 0 109 -50q29 -53 29 -176q0 -127 -29 -182q-29 -53 -109 -53q-69 0 -104 53q-33 55 -33 182z" />
<glyph unicode="h" horiz-adv-x="1055" d="M149 0h213v838q3 2 82 41q76 38 160 40q60 0 80 -28q18 -31 18 -101v-790h213v823q-4 283 -247 283h-7q-61 0 -114 -17q-53 -18 -94 -45q-88 -61 -91 -65v495h-213v-1474z" />
<glyph unicode="i" horiz-adv-x="489" d="M115 1382q0 -57 39 -92q34 -41 92 -41q57 0 94 41q35 35 35 92q0 58 -35 95q-37 34 -94 36q-58 -2 -92 -36q-39 -37 -39 -95zM139 0h213v1085h-213v-1085z" />
<glyph unicode="j" horiz-adv-x="489" d="M-86 -207v-172q2 0 63 -14q60 -15 129 -17q105 0 175 58q69 59 71 209v1228h-213v-1220q0 -53 -22 -74q-23 -20 -60 -20q-41 2 -88 12q-53 10 -55 10zM115 1382q0 -57 39 -92q34 -41 92 -41q57 0 94 41q35 35 35 92q0 58 -35 95q-37 34 -94 36q-58 -2 -92 -36 q-39 -37 -39 -95z" />
<glyph unicode="k" horiz-adv-x="905" d="M149 0h213v1474h-213v-1474zM387 625l270 -645l242 20l-301 633l260 452h-254z" />
<glyph unicode="l" horiz-adv-x="491" d="M139 0h213v1474h-213v-1474z" />
<glyph unicode="m" horiz-adv-x="1495" d="M149 0h213v846q3 2 68 39q64 34 131 37h3q81 0 81 -92v-9v-821h213v846q2 2 68 39q63 34 131 37h3q85 0 83 -101v-821h213v833v13q0 258 -240 260q-84 -2 -156 -45q-71 -43 -120 -88q-47 133 -220 133q-51 0 -98 -17q-47 -18 -84 -43q-80 -57 -82 -61l-47 100h-160v-1085 z" />
<glyph unicode="n" horiz-adv-x="1055" d="M149 0h213v842q3 2 82 41q76 34 160 36q60 0 80 -28q18 -33 18 -101v-790h213v823q-4 283 -247 283h-7q-61 0 -114 -17q-56 -18 -99 -45q-90 -57 -92 -61l-45 102h-162v-1085z" />
<glyph unicode="o" horiz-adv-x="958" d="M72 543q0 -170 37 -281q34 -113 90 -172q59 -59 131 -84q71 -26 149 -26q80 0 154 24q71 25 129 84q59 59 92 172q16 55 25 127q8 70 8 156q0 174 -33 286q-33 111 -92 170q-60 62 -131 84q-74 23 -152 23q-80 0 -151 -23q-72 -26 -131 -90q-123 -123 -125 -450zM285 543 q0 241 53 327q24 45 61 66q37 16 80 16h9q82 0 132 -73q25 -43 41 -123q13 -82 13 -213q0 -125 -17 -205q-16 -80 -45 -125q-26 -41 -61 -59q-35 -19 -72 -19h-6q-67 0 -125 80q-26 45 -43 125q-20 80 -20 203z" />
<glyph unicode="p" horiz-adv-x="1003" d="M149 -389h213v403q3 -2 56 -16q49 -16 112 -18q29 0 60 4q30 4 61 12q35 10 66 29q30 18 59 45q60 57 100 172q39 114 39 309q0 186 -28 297q-31 112 -80 168q-21 30 -49 49q-27 18 -58 27q-59 14 -118 14q-56 0 -99 -14q-43 -17 -73 -39q-64 -52 -64 -56l-33 88h-164 v-1474zM362 168v692q0 2 50 39q43 35 120 37q41 0 72 -10q31 -15 53 -54q23 -39 35 -114q10 -78 10 -207q0 -135 -16 -217q-18 -82 -49 -123t-66 -55q-37 -15 -73 -15q-45 0 -88 15q-45 10 -48 12z" />
<glyph unicode="q" horiz-adv-x="1024" d="M88 549q0 -193 41 -307q37 -115 96 -172q60 -58 123 -74q64 -16 113 -16q92 2 145 30q53 27 55 29v-428h213v1474h-157l-35 -86q0 2 -51 54q-27 22 -68 39q-43 14 -102 14q-53 0 -115 -19q-63 -20 -123 -77q-55 -58 -94 -168q-41 -113 -41 -293zM301 549q0 123 16 198 q17 76 43 115q27 43 64 57q35 13 78 13q69 -2 114 -37t45 -37v-663q-2 -3 -53 -25q-49 -23 -106 -25h-8q-79 0 -134 72q-26 43 -43 125q-16 80 -16 207z" />
<glyph unicode="r" horiz-adv-x="635" d="M149 0h213v840q0 2 39 30q39 27 101 29q110 -14 116 -20v210q-4 11 -94 17q-45 0 -80 -21q-36 -18 -57 -45q-41 -63 -41 -67l-33 112h-164v-1085z" />
<glyph unicode="s" horiz-adv-x="692" d="M70 18q2 -2 69 -18q62 -18 142 -20q32 0 63 4t61 10q64 14 113 47q51 37 82 100q31 64 31 164q-2 121 -47 191q-50 67 -113 102l-88 57q-47 29 -76 60q-33 30 -33 90q2 127 134 129q79 -2 135 -19q55 -20 57 -20v170q-2 0 -55 20q-54 19 -144 21q-139 0 -231 -76 q-96 -78 -98 -237q0 -62 20 -107q17 -49 41 -82q27 -33 57 -57q29 -25 54 -43l75 -49q48 -27 78 -60q29 -35 29 -98q-4 -143 -146 -143h-10q-55 2 -123 24q-75 19 -77 21v-181z" />
<glyph unicode="t" horiz-adv-x="602" d="M16 932h131v-701q0 -82 25 -131q23 -49 59 -75q39 -27 82 -35q43 -10 84 -10q74 2 131 16q56 14 58 14v168q-2 -2 -56 -12q-51 -12 -86 -12h-7q-34 0 -54 18q-23 18 -23 72v688h170l25 153h-195v328l-194 -82l-19 -246h-131v-153z" />
<glyph unicode="u" horiz-adv-x="1034" d="M139 297q0 -96 27 -158q22 -63 63 -98q41 -33 95 -47q51 -14 106 -14q55 2 102 18q48 16 80 39q70 53 72 57l27 -94h174v1085h-213v-837q-2 -2 -66 -41q-61 -41 -143 -43h-6q-47 0 -74 31q-31 28 -31 112v778h-213v-788z" />
<glyph unicode="v" horiz-adv-x="868" d="M0 1085l307 -1085h254l307 1085h-237l-135 -637q-58 -315 -62 -352q-4 37 -61 352l-135 637h-238z" />
<glyph unicode="w" horiz-adv-x="1458" d="M37 1085l225 -1085h268l117 551q74 381 82 430q6 -51 78 -432l117 -549h270l227 1085h-235l-78 -585q-45 -367 -49 -418q-4 43 -68 418l-127 585h-272l-127 -585q-66 -369 -70 -418q-4 47 -45 418l-76 585h-237z" />
<glyph unicode="x" horiz-adv-x="909" d="M0 0h266l189 442l190 -442h264l-319 577l299 508h-266l-168 -391l-166 391h-269l299 -508z" />
<glyph unicode="y" horiz-adv-x="838" d="M0 1085l356 -1097l-26 -113q-6 -33 -19 -55q-12 -23 -28 -35q-35 -23 -84 -23q-43 3 -101 15q-63 12 -65 12v-168l57 -14q55 -15 127 -17h8q106 0 180 52q74 53 113 202l320 1241h-234l-160 -841l-190 841h-254z" />
<glyph unicode="z" horiz-adv-x="780" d="M78 0h622l13 172h-408l406 766v147h-633v-172h403l-403 -766v-147z" />
<glyph unicode="{" horiz-adv-x="651" d="M20 586q5 2 86 -29q35 -20 62 -63q22 -46 24 -121v-264q-2 -422 406 -416h43v178h-25q-215 -4 -211 233v258q-2 136 -61 215q-59 78 -158 99q93 26 156 104q61 76 63 213v254q-2 131 50 184q47 50 161 50h25v178h-43q-408 6 -406 -416v-260q-2 -72 -24 -115 q-27 -45 -62 -65q-81 -35 -86 -33v-184z" />
<glyph unicode="|" horiz-adv-x="512" d="M149 -225h213v1884h-213v-1884z" />
<glyph unicode="}" horiz-adv-x="649" d="M10 -129v-178h43q406 -6 406 416v264q0 75 28 121q27 43 58 63q78 31 84 29v184q-6 -2 -84 33q-31 20 -58 65q-28 43 -28 115v260q0 422 -406 416h-43v-178h25q114 0 166 -50q45 -53 45 -184v-254q2 -137 67 -213q62 -78 152 -104q-47 -10 -84 -35q-41 -25 -72 -64 q-63 -79 -63 -215v-258q4 -237 -211 -233h-25z" />
<glyph unicode="~" horiz-adv-x="1280" d="M129 569q2 2 92 43q84 39 197 41q55 0 114 -20q56 -19 115 -47q60 -25 121 -45q59 -25 121 -25q55 0 104 14q47 13 82 29q74 39 76 41v201q-4 -2 -86 -41q-37 -17 -82 -27q-47 -14 -90 -14q-51 0 -105 24q-51 21 -110 45q-55 29 -119 50q-65 20 -139 20q-117 -2 -201 -41 q-88 -43 -90 -45v-203z" />
<glyph unicode="&#xa1;" horiz-adv-x="606" d="M149 946q0 -65 46 -108q41 -48 106 -48q70 0 113 48q41 43 43 108q-2 68 -43 113q-43 45 -113 47q-65 -2 -106 -47q-46 -45 -46 -113zM178 -369h246l-39 942h-166z" />
<glyph unicode="&#xa2;" horiz-adv-x="721" d="M88 537q0 -154 29 -254q26 -103 69 -164q45 -60 95 -90q49 -29 98 -41v-213h153v211q142 28 148 34v183q-2 -2 -62 -21q-61 -22 -141 -24q-63 -2 -117 80q-57 81 -59 299q0 122 21 200q16 80 43 121q28 43 63 59q31 15 66 15q71 -2 129 -21q55 -20 57 -22v174 q-2 6 -148 41v207h-153v-219q-49 -13 -100 -46q-50 -32 -95 -96q-94 -123 -96 -413z" />
<glyph unicode="&#xa3;" horiz-adv-x="887" d="M41 0h784v180h-391v481h268l25 170h-293v172q0 109 39 154q37 41 113 41q92 -2 164 -20q73 -23 75 -25v168q-2 2 -67 26q-66 23 -178 25q-146 2 -246 -80q-107 -82 -109 -289v-172h-174v-170h174v-481h-184v-180z" />
<glyph unicode="&#xa4;" horiz-adv-x="987" d="M41 422h174q27 -143 76 -232q47 -90 112 -135q66 -45 136 -59q69 -16 137 -16q117 2 192 28q76 27 78 29v176q-2 -2 -84 -29q-82 -26 -176 -28q-205 -7 -264 266h377l18 168h-412q-2 26 -2 86q5 76 7 106h393l16 168h-391q29 139 104 195q74 51 164 51q103 -2 176 -25 q72 -22 74 -24v174q-2 2 -67 26q-70 23 -183 25q-55 0 -125 -12q-71 -17 -141 -62t-123 -129q-55 -84 -82 -219h-162l-20 -168h154q-5 -30 -7 -106q0 -60 2 -86h-131z" />
<glyph unicode="&#xa5;" horiz-adv-x="868" d="M4 1352l250 -580h-178v-190h252v-158h-252v-191h252v-233h213v233h252v191h-252v158h252v190h-179l250 580h-252l-178 -578l-178 578h-252z" />
<glyph unicode="&#xa6;" horiz-adv-x="512" d="M149 -225h213v798h-213v-798zM149 860h213v799h-213v-799z" />
<glyph unicode="&#xa7;" horiz-adv-x="868" d="M82 588q2 -117 80 -180q35 -33 78 -58q41 -26 77 -49l97 -51q57 -27 92 -62q35 -34 35 -98q-4 -131 -168 -133q-80 2 -168 29q-92 22 -96 24v-176q2 0 90 -20q82 -21 180 -23q164 0 266 76q102 74 105 231q0 56 -13 99q-16 43 -39 69q-20 29 -43 47q-20 17 -37 25 q17 10 46 31q28 18 55 49q28 30 49 71q18 41 18 93q0 55 -18 96t-51 72q-31 32 -72 59q-43 24 -86 47l-84 47q-55 29 -98 68q-47 34 -49 100q0 74 47 104q43 29 121 29q96 -2 178 -29q84 -30 86 -32v168q-2 2 -78 32q-76 27 -193 29q-161 0 -264 -70q-104 -71 -106 -237 q0 -57 20 -100q17 -43 39 -74q23 -29 45 -47q19 -19 29 -25q-12 -8 -41 -26q-29 -19 -57 -48q-29 -26 -50 -67q-22 -41 -22 -90zM287 610q0 45 28 82q27 35 56 58l100 -56q45 -20 78 -51q33 -33 35 -90q0 -45 -21 -82q-22 -37 -49 -61l-109 59q-40 25 -77 57q-41 33 -41 84z " />
<glyph unicode="&#xa8;" horiz-adv-x="719" d="M51 1397q0 -54 37 -88q35 -39 88 -39q55 0 90 39q35 34 37 88q-2 55 -37 90t-90 37q-53 -2 -88 -37q-37 -35 -37 -90zM418 1397q0 -54 37 -88q34 -39 88 -39q55 0 90 39q35 34 35 88q0 55 -35 90t-90 37q-54 -2 -88 -37q-37 -35 -37 -90z" />
<glyph unicode="&#xa9;" horiz-adv-x="1485" d="M88 645q16 -731 655 -737q295 2 471 196q181 191 183 541q-19 725 -654 737q-288 -2 -469 -194q-184 -193 -186 -543zM264 645q4 573 479 580q475 -9 480 -580q-5 -573 -480 -579q-475 6 -479 579zM444 649q0 -129 33 -209q33 -82 82 -125t109 -57q57 -16 106 -16 q80 0 131 20q51 14 53 17v141q-2 -2 -61 -17q-59 -16 -123 -16q-65 -2 -104 57q-43 58 -43 205q0 86 16 139q12 54 35 80q47 49 110 47q66 -2 117 -16q51 -16 53 -18v133l-45 20q-47 17 -125 19q-43 0 -100 -13q-59 -14 -115 -55q-53 -41 -90 -123q-39 -82 -39 -213z" />
<glyph unicode="&#xaa;" horiz-adv-x="711" d="M41 0h588v192h-588v-192zM41 807q0 -94 22 -152q23 -59 58 -90q37 -31 80 -39q41 -12 80 -12q69 2 112 45l43 43l25 -72h168v672q0 82 -21 133q-22 49 -59 76t-82 35q-47 8 -94 8q-109 -2 -183 -21q-79 -22 -81 -24v-156q2 2 79 25q72 18 148 20q59 0 80 -20 q16 -23 16 -84v-98h-94q-86 2 -186 -52q-48 -28 -78 -86q-33 -57 -33 -151zM240 811q0 55 12 88q10 31 29 47q34 31 92 27l59 2v-246q0 -2 -29 -33q-30 -30 -77 -32q-43 -3 -64 30q-22 33 -22 117z" />
<glyph unicode="&#xab;" d="M72 639l379 -453v316l-181 188l181 180v316l-379 -453v-94zM491 639l379 -453v316l-180 188l180 180v316l-379 -453v-94z" />
<glyph unicode="&#xac;" horiz-adv-x="1239" d="M129 594h778v-358h203v563h-981v-205z" />
<glyph unicode="&#xad;" horiz-adv-x="784" d="M129 590h674v192h-674v-192z" />
<glyph unicode="&#xae;" horiz-adv-x="1485" d="M88 645q16 -731 655 -737q295 2 471 196q181 191 183 541q-19 725 -654 737q-288 -2 -469 -194q-184 -193 -186 -543zM264 645q4 573 479 580q475 -9 480 -580q-5 -573 -480 -579q-475 6 -479 579zM504 281h162v294l67 7q31 -29 51 -76q21 -47 33 -103l31 -122h188 l-55 157q-16 53 -43 101q-27 47 -70 79q68 29 109 76q39 45 39 121t-25 121q-24 45 -67 65q-43 25 -99 33q-55 4 -116 4h-205v-757zM666 680v244h36q82 0 117 -17q31 -22 31 -92q2 -65 -33 -96q-37 -33 -151 -39z" />
<glyph unicode="&#xaf;" horiz-adv-x="686" d="M51 1337h584v203h-584v-203z" />
<glyph unicode="&#xb0;" horiz-adv-x="784" d="M72 1096q2 -205 96 -289q92 -82 225 -80q139 -2 227 86q91 84 93 283q0 104 -23 176q-24 69 -70 112q-88 82 -227 80q-129 0 -223 -82q-43 -43 -70 -112q-28 -74 -28 -174zM264 1096q0 127 35 184q33 53 94 53q70 0 101 -55q26 -57 26 -182q0 -121 -31 -177 q-30 -57 -96 -55q-131 -4 -129 232z" />
<glyph unicode="&#xb1;" horiz-adv-x="1147" d="M129 -14h889v198h-889v-198zM129 606h342v-293h213v293h334v203h-334v342h-213v-342h-342v-203z" />
<glyph unicode="&#xb2;" horiz-adv-x="602" d="M74 569h444l16 144h-268l105 127q59 63 104 149q47 86 49 205q-2 147 -78 207q-75 53 -186 53q-78 -2 -129 -18l-55 -21v-133q2 2 63 18q58 15 109 17q59 0 86 -27q22 -29 22 -102q-2 -78 -30 -139q-29 -64 -74 -119l-178 -234v-127z" />
<glyph unicode="&#xb3;" horiz-adv-x="602" d="M76 575q2 -2 55 -12q51 -14 119 -14q110 -2 194 57q86 60 88 221q-4 176 -149 211q129 41 131 195q0 67 -20 112q-23 43 -60 66q-78 45 -174 43q-72 -2 -127 -16q-57 -17 -57 -19v-131q2 0 63 16q56 15 115 17q43 0 68 -19q22 -20 22 -79q-2 -76 -35 -103 q-35 -28 -86 -26h-92v-127h92q64 0 103 -25q39 -29 39 -113t-27 -116q-31 -33 -90 -31q-51 0 -109 14q-61 11 -63 13v-134z" />
<glyph unicode="&#xb4;" horiz-adv-x="594" d="M51 1270h207l285 317h-271z" />
<glyph unicode="&#xb5;" horiz-adv-x="1044" d="M149 -389h213v377q33 -8 78 -8q47 0 90 16t76 35q35 22 60 41q22 16 28 22l27 -94h174v1085h-213v-837q-16 -12 -78 -45q-61 -37 -131 -39q-51 -2 -80 31q-31 28 -31 112v778h-213v-1474z" />
<glyph unicode="&#xb6;" horiz-adv-x="1149" d="M78 942q0 -274 112 -383q109 -106 287 -104v-455h193v1433h-148q-194 5 -317 -96q-125 -104 -127 -395zM291 942q0 184 45 248q43 61 141 59v-629q-194 -4 -186 322zM807 0h192v1433h-192v-1433z" />
<glyph unicode="&#xb8;" horiz-adv-x="518" d="M51 -205v-157q2 0 60 -17q55 -18 120 -20q93 0 164 45q70 47 72 170q0 49 -16 88q-17 37 -39 63q-54 53 -58 53h-133q2 -2 31 -57q27 -55 29 -121q0 -82 -78 -82q-43 2 -94 19q-56 16 -58 16z" />
<glyph unicode="&#xb9;" horiz-adv-x="602" d="M98 1184l172 71v-686h168v864h-123l-217 -108v-141z" />
<glyph unicode="&#xba;" horiz-adv-x="817" d="M68 0h682v192h-682v-192zM68 981q0 -143 30 -234q29 -94 76 -145q49 -51 111 -72q59 -20 125 -20q67 0 129 20q61 21 108 72t76 145q27 91 27 234t-27 237q-29 95 -78 146q-47 51 -108 72q-62 18 -127 18q-66 0 -125 -21q-62 -20 -111 -75q-47 -54 -76 -146 q-30 -94 -30 -231zM266 981q0 197 39 262q19 37 47 51q25 10 58 10q34 0 61 -8q27 -12 45 -45q35 -61 35 -270q0 -100 -10 -164q-13 -63 -31 -98q-19 -33 -43 -45q-27 -13 -57 -13q-60 -2 -101 62q-43 63 -43 258z" />
<glyph unicode="&#xbb;" d="M92 186l379 453v94l-379 453v-316l180 -180l-180 -188v-316zM512 186l379 453v94l-379 453v-316l180 -180l-180 -188v-316z" />
<glyph unicode="&#xbc;" horiz-adv-x="1632" d="M98 1184l172 71v-686h168v864h-123l-217 -108v-141zM356 -225h172l748 1884h-172zM1044 180h299v-180h170v180h103l16 146h-119v292h-145l-23 -292h-127l113 538h-184l-103 -567v-117z" />
<glyph unicode="&#xbd;" horiz-adv-x="1632" d="M98 1184l172 71v-686h168v864h-123l-217 -108v-141zM356 -225h172l748 1884h-172zM1104 0h444l17 143h-269l105 127q59 64 104 150q47 86 49 205q-2 147 -77 206q-76 54 -187 54q-78 -2 -129 -19l-55 -20v-133q2 2 63 18q58 14 109 16q59 0 86 -26q22 -29 22 -103 q-2 -77 -30 -139q-29 -63 -74 -119l-178 -233v-127z" />
<glyph unicode="&#xbe;" horiz-adv-x="1632" d="M76 575q2 -2 55 -12q51 -14 119 -14q110 -2 194 57q86 60 88 221q-4 176 -149 211q129 41 131 195q0 67 -20 112q-23 43 -60 66q-78 45 -174 43q-72 -2 -127 -16q-57 -17 -57 -19v-131q2 0 63 16q56 15 115 17q43 0 68 -19q22 -20 22 -79q-2 -76 -35 -103 q-35 -28 -86 -26h-92v-127h92q64 0 103 -25q39 -29 39 -113t-27 -116q-31 -33 -90 -31q-51 0 -109 14q-61 11 -63 13v-134zM356 -225h172l748 1884h-172zM1044 180h299v-180h170v180h103l16 146h-119v292h-145l-23 -292h-127l113 538h-184l-103 -567v-117z" />
<glyph unicode="&#xbf;" horiz-adv-x="682" d="M74 -106q0 -154 80 -220q75 -63 202 -63q99 2 170 24q72 25 74 25v170q-2 0 -68 -20q-63 -19 -133 -21q-53 0 -84 23q-32 22 -32 86q0 65 26 112q27 45 64 88q47 54 86 129q35 78 37 219q0 58 -11 127h-192q14 -75 14 -137q0 -98 -26 -151q-27 -56 -66 -97 q-25 -26 -47 -53q-25 -31 -47 -63q-19 -33 -33 -76t-14 -102zM227 946q0 -65 45 -108q43 -48 109 -48q70 0 113 48q40 43 43 108q-3 68 -43 113q-43 45 -113 47q-66 -2 -109 -47q-45 -45 -45 -113z" />
<glyph unicode="&#xc0;" d="M6 0h230l63 319h365l63 -319h229l-352 1433h-248zM88 1792l285 -256h207l-211 256h-281zM328 489l90 461q57 328 63 367q6 -39 64 -367l88 -461h-305z" />
<glyph unicode="&#xc1;" d="M6 0h230l63 319h365l63 -319h229l-352 1433h-248zM328 489l90 461q57 328 63 367q6 -39 64 -367l88 -461h-305zM379 1536h207l284 256h-280z" />
<glyph unicode="&#xc2;" d="M6 0h230l63 319h365l63 -319h229l-352 1433h-248zM109 1536h247l127 127l125 -127h248l-283 256h-182zM328 489l90 461q57 328 63 367q6 -39 64 -367l88 -461h-305z" />
<glyph unicode="&#xc3;" d="M6 0h230l63 319h365l63 -319h229l-352 1433h-248zM164 1573q94 61 164 61q84 -2 157 -41q41 -16 80 -28q39 -15 84 -15q70 0 150 53v191q-82 -51 -140 -51q-67 2 -143 41q-80 37 -174 39q-84 0 -178 -58v-192zM328 489l90 461q57 328 63 367q6 -39 64 -367l88 -461h-305z " />
<glyph unicode="&#xc4;" d="M6 0h230l63 319h365l63 -319h229l-352 1433h-248zM154 1663q0 -53 36 -88q35 -39 89 -39q55 0 90 39q34 35 36 88q-2 55 -36 90q-35 35 -90 37q-54 -2 -89 -37q-36 -35 -36 -90zM328 489l90 461q57 328 63 367q6 -39 64 -367l88 -461h-305zM561 1663q0 -53 37 -88 q35 -39 88 -39q55 0 90 39q35 35 35 88q0 55 -35 90t-90 37q-53 -2 -88 -37q-37 -35 -37 -90z" />
<glyph unicode="&#xc5;" d="M6 0h230l63 319h365l63 -319h229l-352 1433h-248zM223 1665q0 -117 74 -172q70 -57 186 -57q119 0 189 59q69 55 69 170q-2 115 -71 172q-74 57 -187 57q-118 0 -188 -55q-72 -57 -72 -174zM328 489l90 461q57 328 63 367q6 -39 64 -367l88 -461h-305zM379 1665 q0 110 104 110q103 0 105 -110q0 -57 -29 -84t-76 -27q-102 -2 -104 111z" />
<glyph unicode="&#xc6;" horiz-adv-x="1190" d="M-4 0h237l84 319h246v-319h572v186h-359v494h332v170h-332v397h352l11 186h-695zM358 489l121 461q74 299 84 340v-801h-205z" />
<glyph unicode="&#xc7;" horiz-adv-x="762" d="M88 707q2 -371 90 -527q41 -82 94 -123q52 -45 107 -61q41 -59 45 -154q0 -82 -78 -82q-43 2 -94 19q-55 16 -57 16v-157q2 0 59 -17q55 -18 121 -20q92 0 164 45q69 47 71 170q0 55 -20 98q-23 43 -49 68q182 36 190 45v182q-2 -2 -74 -25q-67 -22 -149 -24 q-94 -2 -148 121q-59 124 -59 426q2 325 72 452q30 68 71 94q41 25 84 25q86 -2 144 -21q57 -20 59 -22v174q0 2 -51 24q-53 19 -150 21q-65 0 -141 -25q-78 -26 -145 -104q-66 -78 -109 -227q-47 -150 -47 -391z" />
<glyph unicode="&#xc8;" horiz-adv-x="827" d="M92 1792l285 -256h207l-211 256h-281zM149 0h623v184h-410v496h363v170h-363v399h404l10 184h-627v-1433z" />
<glyph unicode="&#xc9;" horiz-adv-x="827" d="M149 0h623v184h-410v496h363v170h-363v399h404l10 184h-627v-1433zM338 1536h207l284 256h-280z" />
<glyph unicode="&#xca;" horiz-adv-x="827" d="M80 1536h248l127 127l125 -127h247l-282 256h-183zM149 0h623v184h-410v496h363v170h-363v399h404l10 184h-627v-1433z" />
<glyph unicode="&#xcb;" horiz-adv-x="827" d="M137 1663q0 -53 37 -88q35 -39 88 -39q55 0 90 39q35 35 37 88q-2 55 -37 90t-90 37q-53 -2 -88 -37q-37 -35 -37 -90zM149 0h623v184h-410v496h363v170h-363v399h404l10 184h-627v-1433zM545 1663q0 -53 37 -88q34 -39 88 -39q55 0 90 39q35 35 35 88q0 55 -35 90 t-90 37q-54 -2 -88 -37q-37 -35 -37 -90z" />
<glyph unicode="&#xcc;" horiz-adv-x="516" d="M-133 1792l285 -256h206l-211 256h-280zM149 0h218v1433h-218v-1433z" />
<glyph unicode="&#xcd;" horiz-adv-x="516" d="M149 0h218v1433h-218v-1433zM154 1536h206l285 256h-280z" />
<glyph unicode="&#xce;" horiz-adv-x="516" d="M-115 1536h248l127 127l125 -127h248l-283 256h-182zM149 0h218v1433h-218v-1433z" />
<glyph unicode="&#xcf;" horiz-adv-x="516" d="M-49 1663q2 -53 37 -88q35 -39 88 -39q55 0 90 39q35 35 37 88q-2 55 -37 90t-90 37q-53 -2 -88 -37t-37 -90zM149 0h218v1433h-218v-1433zM317 1663q0 -53 37 -88q35 -39 88 -39q56 0 90 39q35 35 35 88q0 55 -35 90q-34 35 -90 37q-53 -2 -88 -37q-37 -35 -37 -90z" />
<glyph unicode="&#xd0;" horiz-adv-x="1028" d="M37 690h117v-690h258q114 0 213 29q96 26 165 102q72 76 113 221q37 144 37 375q0 238 -41 381q-43 141 -119 213q-73 72 -168 94q-96 18 -204 18h-254v-583h-117v-160zM367 176v514h190v160h-190v407h69q68 0 123 -16q53 -20 90 -78q37 -53 60 -160q18 -106 18 -276 q0 -338 -72 -448q-37 -58 -94 -80q-57 -23 -137 -23h-57z" />
<glyph unicode="&#xd1;" horiz-adv-x="1085" d="M149 0h213v616q-2 142 -16 303q-16 168 -18 177q10 -45 157 -453l265 -643h186v1433h-213v-581q20 -444 35 -500q-2 4 -43 154q-41 141 -105 299l-258 628h-203v-1433zM225 1573q94 61 164 61q84 -2 158 -41q41 -16 80 -28q39 -15 84 -15q69 0 149 53v191 q-82 -51 -139 -51q-68 2 -144 41q-79 37 -174 39q-84 0 -178 -58v-192z" />
<glyph unicode="&#xd2;" horiz-adv-x="991" d="M72 717q0 -244 39 -391q38 -148 100 -224q63 -75 137 -98q76 -24 148 -24q77 0 151 24q76 27 137 100q64 76 101 224q34 149 34 389q-2 241 -36 389q-37 149 -101 223q-61 76 -137 102q-74 23 -149 23q-72 0 -146 -21q-74 -24 -137 -100q-61 -76 -100 -221 q-41 -147 -41 -395zM92 1792l285 -256h207l-211 256h-281zM285 717q0 348 61 469q29 63 68 88q37 22 82 22q49 0 90 -26q37 -27 65 -95q56 -129 56 -458q-3 -348 -64 -467q-31 -64 -68 -86q-38 -27 -79 -27q-84 -4 -146 113q-63 121 -65 467z" />
<glyph unicode="&#xd3;" horiz-adv-x="991" d="M72 717q0 -244 39 -391q38 -148 100 -224q63 -75 137 -98q76 -24 148 -24q77 0 151 24q76 27 137 100q64 76 101 224q34 149 34 389q-2 241 -36 389q-37 149 -101 223q-61 76 -137 102q-74 23 -149 23q-72 0 -146 -21q-74 -24 -137 -100q-61 -76 -100 -221 q-41 -147 -41 -395zM285 717q0 348 61 469q29 63 68 88q37 22 82 22q49 0 90 -26q37 -27 65 -95q56 -129 56 -458q-3 -348 -64 -467q-31 -64 -68 -86q-38 -27 -79 -27q-84 -4 -146 113q-63 121 -65 467zM367 1536h206l285 256h-281z" />
<glyph unicode="&#xd4;" horiz-adv-x="991" d="M72 717q0 -244 39 -391q38 -148 100 -224q63 -75 137 -98q76 -24 148 -24q77 0 151 24q76 27 137 100q64 76 101 224q34 149 34 389q-2 241 -36 389q-37 149 -101 223q-61 76 -137 102q-74 23 -149 23q-72 0 -146 -21q-74 -24 -137 -100q-61 -76 -100 -221 q-41 -147 -41 -395zM123 1536h248l127 127l125 -127h247l-282 256h-183zM285 717q0 348 61 469q29 63 68 88q37 22 82 22q49 0 90 -26q37 -27 65 -95q56 -129 56 -458q-3 -348 -64 -467q-31 -64 -68 -86q-38 -27 -79 -27q-84 -4 -146 113q-63 121 -65 467z" />
<glyph unicode="&#xd5;" horiz-adv-x="991" d="M72 717q0 -244 39 -391q38 -148 100 -224q63 -75 137 -98q76 -24 148 -24q77 0 151 24q76 27 137 100q64 76 101 224q34 149 34 389q-2 241 -36 389q-37 149 -101 223q-61 76 -137 102q-74 23 -149 23q-72 0 -146 -21q-74 -24 -137 -100q-61 -76 -100 -221 q-41 -147 -41 -395zM178 1573q94 61 164 61q84 -2 158 -41q41 -16 80 -28q38 -15 84 -15q69 0 149 53v191q-82 -51 -139 -51q-68 2 -144 41q-79 37 -174 39q-84 0 -178 -58v-192zM285 717q0 348 61 469q29 63 68 88q37 22 82 22q49 0 90 -26q37 -27 65 -95q56 -129 56 -458 q-3 -348 -64 -467q-31 -64 -68 -86q-38 -27 -79 -27q-84 -4 -146 113q-63 121 -65 467z" />
<glyph unicode="&#xd6;" horiz-adv-x="991" d="M72 717q0 -244 39 -391q38 -148 100 -224q63 -75 137 -98q76 -24 148 -24q77 0 151 24q76 27 137 100q64 76 101 224q34 149 34 389q-2 241 -36 389q-37 149 -101 223q-61 76 -137 102q-74 23 -149 23q-72 0 -146 -21q-74 -24 -137 -100q-61 -76 -100 -221 q-41 -147 -41 -395zM168 1663q0 -53 37 -88q35 -39 88 -39q55 0 90 39q35 35 37 88q-2 55 -37 90t-90 37q-53 -2 -88 -37q-37 -35 -37 -90zM285 717q0 348 61 469q29 63 68 88q37 22 82 22q49 0 90 -26q37 -27 65 -95q56 -129 56 -458q-3 -348 -64 -467q-31 -64 -68 -86 q-38 -27 -79 -27q-84 -4 -146 113q-63 121 -65 467zM575 1663q0 -53 37 -88q35 -39 88 -39q56 0 90 39q35 35 35 88q0 55 -35 90q-34 35 -90 37q-53 -2 -88 -37q-37 -35 -37 -90z" />
<glyph unicode="&#xd7;" horiz-adv-x="1020" d="M104 940l254 -254l-247 -248l151 -149l248 245l256 -253l149 151l-254 254l248 248l-151 149l-248 -245l-254 254z" />
<glyph unicode="&#xd8;" horiz-adv-x="991" d="M72 717q0 -250 43 -398q39 -151 100 -225l-109 -319h138l80 237q84 -35 172 -32q75 0 149 24q76 27 137 100q64 76 101 224q34 149 36 389q0 243 -38 393q-41 149 -107 223l111 326h-138l-81 -242q-84 39 -170 37q-72 0 -146 -21q-74 -24 -137 -100q-61 -76 -100 -221 q-41 -147 -41 -395zM285 717q0 348 61 469q29 63 68 88q37 22 82 22q63 0 112 -53l-297 -864q-26 123 -26 338zM385 190l295 867q27 -125 27 -340q-3 -348 -64 -467q-31 -64 -68 -86q-38 -27 -79 -27q-60 -2 -111 53z" />
<glyph unicode="&#xd9;" horiz-adv-x="1036" d="M133 1792l285 -256h207l-211 256h-281zM139 369q0 -211 97 -301q92 -88 282 -88q377 -9 379 389v1064h-213v-1089q0 -195 -166 -192q-90 0 -129 49q-39 45 -37 143v1089h-213v-1064z" />
<glyph unicode="&#xda;" horiz-adv-x="1036" d="M139 369q0 -211 97 -301q92 -88 282 -88q377 -9 379 389v1064h-213v-1089q0 -195 -166 -192q-90 0 -129 49q-39 45 -37 143v1089h-213v-1064zM399 1536h207l285 256h-281z" />
<glyph unicode="&#xdb;" horiz-adv-x="1036" d="M139 369q0 -211 97 -301q92 -88 282 -88q377 -9 379 389v1064h-213v-1089q0 -195 -166 -192q-90 0 -129 49q-39 45 -37 143v1089h-213v-1064zM145 1536h248l127 127l125 -127h248l-283 256h-182z" />
<glyph unicode="&#xdc;" horiz-adv-x="1036" d="M139 369q0 -211 97 -301q92 -88 282 -88q377 -9 379 389v1064h-213v-1089q0 -195 -166 -192q-90 0 -129 49q-39 45 -37 143v1089h-213v-1064zM190 1663q0 -53 37 -88q35 -39 88 -39q56 0 90 39q35 35 37 88q-2 55 -37 90q-34 35 -90 37q-53 -2 -88 -37q-37 -35 -37 -90z M598 1663q0 -53 37 -88q35 -39 88 -39q55 0 90 39q35 35 35 88q0 55 -35 90t-90 37q-53 -2 -88 -37q-37 -35 -37 -90z" />
<glyph unicode="&#xdd;" horiz-adv-x="868" d="M-20 1433l348 -843v-590h213v590l348 843h-252l-203 -655l-203 655h-251zM336 1536h207l284 256h-280z" />
<glyph unicode="&#xde;" horiz-adv-x="926" d="M149 0h213v250q250 6 381 119q131 110 131 368q13 498 -456 492h-56v204h-213v-1433zM362 401v660h64q123 2 180 -58q55 -65 55 -266q3 -162 -55 -243q-59 -82 -244 -93z" />
<glyph unicode="&#xdf;" horiz-adv-x="1053" d="M143 0h213v1116q0 121 43 172q41 47 113 47q133 2 137 -145q0 -58 -22 -105q-23 -49 -54 -88q-32 -43 -59 -98q-31 -57 -31 -131q0 -94 45 -152q41 -57 92 -94l87 -65q36 -27 61 -66q22 -39 22 -94q-4 -145 -137 -143q-59 0 -123 20q-67 14 -69 16v-178q2 -2 71 -16 q64 -14 127 -16q31 0 62 4q29 4 59 10q60 14 109 47q51 35 82 98q28 62 28 156q-2 125 -51 201q-22 38 -51 69q-31 29 -66 49l-88 68q-36 31 -59 57q-23 27 -23 66q3 74 78 133q47 43 86 108q37 64 39 162q-2 144 -96 217q-96 70 -262 70q-357 2 -363 -379v-1116z" />
<glyph unicode="&#xe0;" horiz-adv-x="922" d="M78 330q0 -111 28 -181q27 -69 70 -106q45 -37 94 -49q49 -14 99 -14q49 2 88 20q37 16 63 39q53 53 55 57l31 -96h176v805q0 98 -24 160q-29 61 -72 90q-45 30 -98 43q-56 8 -113 8q-129 -2 -219 -29q-94 -26 -96 -28v-170q4 2 94 28q86 27 176 29q74 0 107 -25 q32 -26 32 -100v-133h-137q-47 0 -106 -10q-60 -15 -117 -52q-57 -34 -92 -104q-39 -70 -39 -182zM92 1587l285 -317h207l-222 317h-270zM291 336q0 127 49 170q47 43 135 39l94 2v-320q-2 -2 -47 -41q-45 -43 -108 -45q-54 -2 -86 37q-37 37 -37 158z" />
<glyph unicode="&#xe1;" horiz-adv-x="922" d="M78 330q0 -111 28 -181q27 -69 70 -106q45 -37 94 -49q49 -14 99 -14q49 2 88 20q37 16 63 39q53 53 55 57l31 -96h176v805q0 98 -24 160q-29 61 -72 90q-45 30 -98 43q-56 8 -113 8q-129 -2 -219 -29q-94 -26 -96 -28v-170q4 2 94 28q86 27 176 29q74 0 107 -25 q32 -26 32 -100v-133h-137q-47 0 -106 -10q-60 -15 -117 -52q-57 -34 -92 -104q-39 -70 -39 -182zM291 336q0 127 49 170q47 43 135 39l94 2v-320q-2 -2 -47 -41q-45 -43 -108 -45q-54 -2 -86 37q-37 37 -37 158zM358 1270h207l285 317h-270z" />
<glyph unicode="&#xe2;" horiz-adv-x="922" d="M78 330q0 -111 28 -181q27 -69 70 -106q45 -37 94 -49q49 -14 99 -14q49 2 88 20q37 16 63 39q53 53 55 57l31 -96h176v805q0 98 -24 160q-29 61 -72 90q-45 30 -98 43q-56 8 -113 8q-129 -2 -219 -29q-94 -26 -96 -28v-170q4 2 94 28q86 27 176 29q74 0 107 -25 q32 -26 32 -100v-133h-137q-47 0 -106 -10q-60 -15 -117 -52q-57 -34 -92 -104q-39 -70 -39 -182zM88 1270h248l127 168l125 -168h248l-283 317h-182zM291 336q0 127 49 170q47 43 135 39l94 2v-320q-2 -2 -47 -41q-45 -43 -108 -45q-54 -2 -86 37q-37 37 -37 158z" />
<glyph unicode="&#xe3;" horiz-adv-x="922" d="M78 330q0 -111 28 -181q27 -69 70 -106q45 -37 94 -49q49 -14 99 -14q49 2 88 20q37 16 63 39q53 53 55 57l31 -96h176v805q0 98 -24 160q-29 61 -72 90q-45 30 -98 43q-56 8 -113 8q-129 -2 -219 -29q-94 -26 -96 -28v-170q4 2 94 28q86 27 176 29q74 0 107 -25 q32 -26 32 -100v-133h-137q-47 0 -106 -10q-60 -15 -117 -52q-57 -34 -92 -104q-39 -70 -39 -182zM143 1327q90 61 156 61q88 -2 168 -55q76 -49 162 -49q69 0 149 53v191q-78 -51 -131 -51q-67 2 -143 49q-82 49 -182 51q-84 0 -179 -57v-193zM291 336q0 127 49 170 q47 43 135 39l94 2v-320q-2 -2 -47 -41q-45 -43 -108 -45q-54 -2 -86 37q-37 37 -37 158z" />
<glyph unicode="&#xe4;" horiz-adv-x="922" d="M78 330q0 -111 28 -181q27 -69 70 -106q45 -37 94 -49q49 -14 99 -14q49 2 88 20q37 16 63 39q53 53 55 57l31 -96h176v805q0 98 -24 160q-29 61 -72 90q-45 30 -98 43q-56 8 -113 8q-129 -2 -219 -29q-94 -26 -96 -28v-170q4 2 94 28q86 27 176 29q74 0 107 -25 q32 -26 32 -100v-133h-137q-47 0 -106 -10q-60 -15 -117 -52q-57 -34 -92 -104q-39 -70 -39 -182zM143 1397q0 -54 37 -88q35 -39 88 -39q56 0 90 39q35 34 37 88q-2 55 -37 90q-34 35 -90 37q-53 -2 -88 -37q-37 -35 -37 -90zM291 336q0 127 49 170q47 43 135 39l94 2v-320 q-2 -2 -47 -41q-45 -43 -108 -45q-54 -2 -86 37q-37 37 -37 158zM530 1397q0 -54 37 -88q35 -39 88 -39q56 0 90 39q35 34 35 88q0 55 -35 90q-34 35 -90 37q-53 -2 -88 -37q-37 -35 -37 -90z" />
<glyph unicode="&#xe5;" horiz-adv-x="922" d="M78 330q0 -111 28 -181q27 -69 70 -106q45 -37 94 -49q49 -14 99 -14q49 2 88 20q37 16 63 39q53 53 55 57l31 -96h176v805q0 98 -24 160q-29 61 -72 90q-45 30 -98 43q-56 8 -113 8q-129 -2 -219 -29q-94 -26 -96 -28v-170q4 2 94 28q86 27 176 29q74 0 107 -25 q32 -26 32 -100v-133h-137q-47 0 -106 -10q-60 -15 -117 -52q-57 -34 -92 -104q-39 -70 -39 -182zM209 1399q0 -117 72 -176q67 -64 182 -64q248 2 252 240q-2 114 -70 178q-70 61 -182 61q-250 -2 -254 -239zM291 336q0 127 49 170q47 43 135 39l94 2v-320q-2 -2 -47 -41 q-45 -43 -108 -45q-54 -2 -86 37q-37 37 -37 158zM365 1399q-3 114 98 116q98 -2 98 -116q-2 -117 -98 -117q-98 0 -98 117z" />
<glyph unicode="&#xe6;" horiz-adv-x="1366" d="M78 330q0 -113 28 -183q29 -69 72 -106q45 -35 98 -47q54 -14 105 -14q90 2 162 51q71 49 114 114q60 -104 148 -135q43 -16 90 -22q45 -8 88 -8q96 2 172 20q74 18 76 20v177q-4 -2 -92 -21q-84 -20 -156 -20q-35 0 -70 10q-37 10 -67 43q-29 33 -45 96q-21 64 -21 170 h512l2 68q6 321 -88 444q-94 121 -252 119q-139 0 -243 -103q-43 62 -107 84q-63 19 -129 19q-129 -2 -219 -29q-94 -26 -96 -28v-170q4 2 94 28q86 27 176 29q74 0 107 -25q32 -26 32 -100v-133h-137q-47 0 -106 -10q-60 -15 -117 -52q-57 -34 -92 -104q-39 -70 -39 -182z M291 336q0 127 49 170q47 43 135 39l94 2v-238q0 -65 -45 -114q-45 -54 -110 -54q-54 -2 -86 37q-37 37 -37 158zM782 612q2 193 45 273q43 75 127 73q68 2 101 -67q32 -74 32 -279h-305z" />
<glyph unicode="&#xe7;" horiz-adv-x="711" d="M88 537q2 -271 80 -390q37 -61 80 -94q45 -35 88 -53q14 -27 31 -68q16 -43 16 -90q0 -82 -78 -82q-43 2 -94 19q-55 16 -57 16v-157q2 0 59 -17q55 -18 121 -20q92 0 164 45q69 47 71 170q0 55 -20 98q-23 43 -49 68q172 30 180 38v183q-2 -2 -62 -21q-61 -22 -141 -24 q-69 -2 -121 80q-53 81 -55 299q0 122 21 200q16 80 43 121q28 43 63 59q31 15 66 15q71 -2 129 -21q55 -20 57 -22v174q0 2 -47 22q-51 19 -135 21q-52 0 -119 -12q-70 -17 -135 -74q-66 -58 -109 -172q-47 -115 -47 -311z" />
<glyph unicode="&#xe8;" horiz-adv-x="891" d="M88 537q0 -187 39 -299q37 -111 96 -168q62 -54 135 -72q72 -18 144 -18q96 2 172 20q73 18 76 20v177q-5 -2 -91 -21q-84 -20 -157 -20q-35 0 -70 10q-37 10 -67 43q-29 33 -46 96q-20 64 -20 170h512l2 68q6 319 -88 446q-94 119 -252 117q-74 0 -143 -23 q-70 -26 -123 -90q-117 -123 -119 -456zM92 1587l285 -317h207l-222 317h-270zM301 612q2 193 45 273q43 75 127 73q68 2 100 -67q33 -74 33 -279h-305z" />
<glyph unicode="&#xe9;" horiz-adv-x="891" d="M88 537q0 -187 39 -299q37 -111 96 -168q62 -54 135 -72q72 -18 144 -18q96 2 172 20q73 18 76 20v177q-5 -2 -91 -21q-84 -20 -157 -20q-35 0 -70 10q-37 10 -67 43q-29 33 -46 96q-20 64 -20 170h512l2 68q6 319 -88 446q-94 119 -252 117q-74 0 -143 -23 q-70 -26 -123 -90q-117 -123 -119 -456zM301 612q2 193 45 273q43 75 127 73q68 2 100 -67q33 -74 33 -279h-305zM358 1270h207l285 317h-270z" />
<glyph unicode="&#xea;" horiz-adv-x="891" d="M78 1270h248l127 168l124 -168h248l-282 317h-183zM88 537q0 -187 39 -299q37 -111 96 -168q62 -54 135 -72q72 -18 144 -18q96 2 172 20q73 18 76 20v177q-5 -2 -91 -21q-84 -20 -157 -20q-35 0 -70 10q-37 10 -67 43q-29 33 -46 96q-20 64 -20 170h512l2 68 q6 319 -88 446q-94 119 -252 117q-74 0 -143 -23q-70 -26 -123 -90q-117 -123 -119 -456zM301 612q2 193 45 273q43 75 127 73q68 2 100 -67q33 -74 33 -279h-305z" />
<glyph unicode="&#xeb;" horiz-adv-x="891" d="M88 537q0 -187 39 -299q37 -111 96 -168q62 -54 135 -72q72 -18 144 -18q96 2 172 20q73 18 76 20v177q-5 -2 -91 -21q-84 -20 -157 -20q-35 0 -70 10q-37 10 -67 43q-29 33 -46 96q-20 64 -20 170h512l2 68q6 319 -88 446q-94 119 -252 117q-74 0 -143 -23 q-70 -26 -123 -90q-117 -123 -119 -456zM133 1397q0 -54 37 -88q35 -39 88 -39q55 0 90 39q35 34 37 88q-2 55 -37 90t-90 37q-53 -2 -88 -37q-37 -35 -37 -90zM301 612q2 193 45 273q43 75 127 73q68 2 100 -67q33 -74 33 -279h-305zM520 1397q0 -54 37 -88q35 -39 88 -39 q55 0 90 39q35 34 35 88q0 55 -35 90t-90 37q-53 -2 -88 -37q-37 -35 -37 -90z" />
<glyph unicode="&#xec;" horiz-adv-x="489" d="M-147 1587l284 -317h207l-221 317h-270zM139 0h213v1085h-213v-1085z" />
<glyph unicode="&#xed;" horiz-adv-x="489" d="M139 0h213v1085h-213v-1085zM139 1270h207l285 317h-271z" />
<glyph unicode="&#xee;" horiz-adv-x="489" d="M-129 1270h248l127 168l125 -168h247l-282 317h-182zM139 0h213v1085h-213v-1085z" />
<glyph unicode="&#xef;" horiz-adv-x="489" d="M-74 1397q2 -54 37 -88q35 -39 88 -39q55 0 90 39q35 34 37 88q-2 55 -37 90t-90 37q-53 -2 -88 -37t-37 -90zM139 0h213v1085h-213v-1085zM313 1397q0 -54 37 -88q35 -39 88 -39q56 0 90 39q35 34 35 88q0 55 -35 90q-34 35 -90 37q-53 -2 -88 -37q-37 -35 -37 -90z" />
<glyph unicode="&#xf0;" horiz-adv-x="983" d="M88 461q0 -156 37 -250q35 -96 94 -148q31 -24 64 -38q30 -19 65 -27q70 -18 137 -18q84 0 158 24q76 25 131 88q55 66 90 187q31 118 31 305q4 393 -158 649l107 69v168l-205 -137q-158 133 -444 141v-163q176 -11 282 -82l-112 -78v-168l212 145q70 -102 97 -280 q0 2 -51 45q-54 41 -172 43q-150 2 -252 -100q-109 -107 -111 -375zM301 467q0 170 45 242q45 67 148 67q81 -2 131 -33q51 -34 51 -36q4 -25 6 -154q0 -244 -49 -330q-25 -45 -62 -63q-37 -21 -86 -21q-86 -2 -133 64q-51 65 -51 264z" />
<glyph unicode="&#xf1;" horiz-adv-x="1055" d="M149 0h213v842q3 2 82 41q76 34 160 36q60 0 80 -28q18 -33 18 -101v-790h213v823q-4 287 -254 283q-61 0 -114 -17q-56 -18 -99 -45q-90 -57 -92 -61l-45 102h-162v-1085zM211 1327q90 61 156 61q88 -2 167 -55q76 -49 162 -49q70 0 150 53v191q-78 -51 -131 -51 q-68 2 -144 49q-82 49 -182 51q-84 0 -178 -57v-193z" />
<glyph unicode="&#xf2;" horiz-adv-x="958" d="M72 543q0 -170 37 -281q34 -113 90 -172q59 -59 131 -84q71 -26 149 -26q80 0 154 24q71 25 129 84q59 59 92 172q16 55 25 127q8 70 8 156q0 174 -33 286q-33 111 -92 170q-60 62 -131 84q-74 23 -152 23q-80 0 -151 -23q-72 -26 -131 -90q-123 -123 -125 -450z M113 1587l284 -317h207l-221 317h-270zM285 543q0 241 53 327q24 45 61 66q37 16 80 16q88 4 141 -73q25 -43 41 -123q13 -82 13 -213q0 -125 -17 -205q-16 -80 -45 -125q-26 -41 -61 -59q-35 -19 -72 -19q-71 -4 -131 80q-26 45 -43 125q-20 80 -20 203z" />
<glyph unicode="&#xf3;" horiz-adv-x="958" d="M72 543q0 -170 37 -281q34 -113 90 -172q59 -59 131 -84q71 -26 149 -26q80 0 154 24q71 25 129 84q59 59 92 172q16 55 25 127q8 70 8 156q0 174 -33 286q-33 111 -92 170q-60 62 -131 84q-74 23 -152 23q-80 0 -151 -23q-72 -26 -131 -90q-123 -123 -125 -450zM285 543 q0 241 53 327q24 45 61 66q37 16 80 16q88 4 141 -73q25 -43 41 -123q13 -82 13 -213q0 -125 -17 -205q-16 -80 -45 -125q-26 -41 -61 -59q-35 -19 -72 -19q-71 -4 -131 80q-26 45 -43 125q-20 80 -20 203zM358 1270h207l285 317h-270z" />
<glyph unicode="&#xf4;" horiz-adv-x="958" d="M72 543q0 -170 37 -281q34 -113 90 -172q59 -59 131 -84q71 -26 149 -26q80 0 154 24q71 25 129 84q59 59 92 172q16 55 25 127q8 70 8 156q0 174 -33 286q-33 111 -92 170q-60 62 -131 84q-74 23 -152 23q-80 0 -151 -23q-72 -26 -131 -90q-123 -123 -125 -450z M106 1270h248l127 168l125 -168h248l-283 317h-182zM285 543q0 241 53 327q24 45 61 66q37 16 80 16q88 4 141 -73q25 -43 41 -123q13 -82 13 -213q0 -125 -17 -205q-16 -80 -45 -125q-26 -41 -61 -59q-35 -19 -72 -19q-71 -4 -131 80q-26 45 -43 125q-20 80 -20 203z" />
<glyph unicode="&#xf5;" horiz-adv-x="958" d="M72 543q0 -170 37 -281q34 -113 90 -172q59 -59 131 -84q71 -26 149 -26q80 0 154 24q71 25 129 84q59 59 92 172q16 55 25 127q8 70 8 156q0 174 -33 286q-33 111 -92 170q-60 62 -131 84q-74 23 -152 23q-80 0 -151 -23q-72 -26 -131 -90q-123 -123 -125 -450z M162 1327q90 61 155 61q88 -2 168 -55q76 -49 162 -49q70 0 150 53v191q-78 -51 -131 -51q-68 2 -144 49q-82 49 -182 51q-84 0 -178 -57v-193zM285 543q0 241 53 327q24 45 61 66q37 16 80 16q88 4 141 -73q25 -43 41 -123q13 -82 13 -213q0 -125 -17 -205 q-16 -80 -45 -125q-26 -41 -61 -59q-35 -19 -72 -19q-71 -4 -131 80q-26 45 -43 125q-20 80 -20 203z" />
<glyph unicode="&#xf6;" horiz-adv-x="958" d="M72 543q0 -170 37 -281q34 -113 90 -172q59 -59 131 -84q71 -26 149 -26q80 0 154 24q71 25 129 84q59 59 92 172q16 55 25 127q8 70 8 156q0 174 -33 286q-33 111 -92 170q-60 62 -131 84q-74 23 -152 23q-80 0 -151 -23q-72 -26 -131 -90q-123 -123 -125 -450z M162 1397q0 -54 37 -88q34 -39 88 -39q55 0 90 39q35 34 37 88q-2 55 -37 90t-90 37q-54 -2 -88 -37q-37 -35 -37 -90zM285 543q0 241 53 327q24 45 61 66q37 16 80 16q88 4 141 -73q25 -43 41 -123q13 -82 13 -213q0 -125 -17 -205q-16 -80 -45 -125q-26 -41 -61 -59 q-35 -19 -72 -19q-71 -4 -131 80q-26 45 -43 125q-20 80 -20 203zM549 1397q0 -54 37 -88q34 -39 88 -39q55 0 90 39q35 34 35 88q0 55 -35 90t-90 37q-54 -2 -88 -37q-37 -35 -37 -90z" />
<glyph unicode="&#xf7;" horiz-adv-x="1098" d="M129 598h840v192h-840v-192zM395 244q0 -66 45 -111q43 -49 109 -49q69 0 110 49q41 45 43 111q-2 65 -43 110t-110 45q-66 0 -109 -45q-45 -45 -45 -110zM395 1132q0 -65 45 -110q43 -49 109 -49q69 0 110 49q41 45 43 110q-2 66 -43 111t-110 45q-66 0 -109 -45 q-45 -45 -45 -111z" />
<glyph unicode="&#xf8;" horiz-adv-x="958" d="M72 543q0 -189 43 -303q39 -117 106 -174l-115 -291h138l90 227q71 -22 145 -22q80 0 154 24q71 25 129 84q59 59 92 172q16 55 25 127q8 70 8 156q0 190 -41 305q-41 114 -109 172l115 291h-137l-90 -228q-72 23 -146 23q-78 0 -149 -23q-72 -26 -131 -90 q-56 -63 -90 -172q-37 -110 -37 -278zM285 543q0 241 55 327q27 45 63 66q35 16 76 16q47 0 88 -20l-254 -633q-28 86 -28 244zM397 162l252 635q25 -86 25 -254q0 -125 -17 -205q-16 -80 -45 -125q-26 -41 -61 -59q-35 -19 -72 -19q-41 0 -82 27z" />
<glyph unicode="&#xf9;" horiz-adv-x="1034" d="M133 1587l285 -317h207l-222 317h-270zM139 297q0 -96 27 -158q22 -63 63 -98q41 -33 95 -47q51 -14 106 -14q55 2 102 18q48 16 80 39q70 53 72 57l27 -94h174v1085h-213v-837q-2 -2 -66 -41q-61 -41 -143 -43q-51 -2 -80 31q-31 28 -31 112v778h-213v-788z" />
<glyph unicode="&#xfa;" horiz-adv-x="1034" d="M139 297q0 -96 27 -158q22 -63 63 -98q41 -33 95 -47q51 -14 106 -14q55 2 102 18q48 16 80 39q70 53 72 57l27 -94h174v1085h-213v-837q-2 -2 -66 -41q-61 -41 -143 -43q-51 -2 -80 31q-31 28 -31 112v778h-213v-788zM399 1270h207l285 317h-271z" />
<glyph unicode="&#xfb;" horiz-adv-x="1034" d="M139 297q0 -96 27 -158q22 -63 63 -98q41 -33 95 -47q51 -14 106 -14q55 2 102 18q48 16 80 39q70 53 72 57l27 -94h174v1085h-213v-837q-2 -2 -66 -41q-61 -41 -143 -43q-51 -2 -80 31q-31 28 -31 112v778h-213v-788zM143 1270h248l127 168l125 -168h248l-283 317h-182z " />
<glyph unicode="&#xfc;" horiz-adv-x="1034" d="M139 297q0 -96 27 -158q22 -63 63 -98q41 -33 95 -47q51 -14 106 -14q55 2 102 18q48 16 80 39q70 53 72 57l27 -94h174v1085h-213v-837q-2 -2 -66 -41q-61 -41 -143 -43q-51 -2 -80 31q-31 28 -31 112v778h-213v-788zM199 1397q0 -54 37 -88q34 -39 88 -39q55 0 90 39 q34 34 37 88q-3 55 -37 90q-35 35 -90 37q-54 -2 -88 -37q-37 -35 -37 -90zM586 1397q0 -54 37 -88q34 -39 88 -39q55 0 90 39q35 34 35 88q0 55 -35 90t-90 37q-54 -2 -88 -37q-37 -35 -37 -90z" />
<glyph unicode="&#xfd;" horiz-adv-x="838" d="M0 1085l356 -1097l-26 -113q-6 -33 -19 -55q-12 -23 -28 -35q-35 -23 -84 -23q-43 3 -101 15q-63 12 -65 12v-168l57 -14q55 -15 127 -17q111 -2 188 52q74 53 113 202l320 1241h-234l-160 -841l-190 841h-254zM297 1270h207l284 317h-270z" />
<glyph unicode="&#xfe;" horiz-adv-x="1003" d="M149 -389h213v412q15 -9 62 -25t106 -18q29 0 60 4q30 4 61 12q35 10 66 29q30 18 59 45q60 57 100 172q39 114 39 309q0 186 -28 297q-31 112 -80 168q-21 30 -49 49q-27 18 -58 27q-59 14 -118 14q-50 0 -86 -12q-37 -13 -66 -29q-55 -39 -68 -55v464h-213v-1863z M362 168v694q15 17 58 43q45 29 112 31q41 0 72 -10q31 -15 53 -54q23 -39 35 -114q10 -78 10 -207q0 -135 -16 -217q-18 -82 -49 -123t-66 -55q-37 -15 -73 -15q-88 4 -136 27z" />
<glyph unicode="&#xff;" horiz-adv-x="838" d="M0 1085l356 -1097l-26 -113q-6 -33 -19 -55q-12 -23 -28 -35q-35 -23 -84 -23q-43 3 -101 15q-63 12 -65 12v-168l57 -14q55 -15 127 -17q111 -2 188 52q74 53 113 202l320 1241h-234l-160 -841l-190 841h-254zM100 1397q0 -54 37 -88q35 -39 88 -39q56 0 90 39 q35 34 37 88q-2 55 -37 90q-34 35 -90 37q-53 -2 -88 -37q-37 -35 -37 -90zM487 1397q0 -54 37 -88q35 -39 88 -39q56 0 90 39q35 34 35 88q0 55 -35 90q-34 35 -90 37q-53 -2 -88 -37q-37 -35 -37 -90z" />
<glyph unicode="&#x152;" horiz-adv-x="1173" d="M72 717q0 -244 39 -391q38 -148 100 -224q63 -75 137 -98q76 -24 148 -24q36 2 73 12q33 8 35 8h514v186h-358v494h332v170h-332v397h352l10 186h-520q-12 13 -106 21q-72 0 -146 -21q-74 -24 -137 -100q-61 -76 -100 -221q-41 -147 -41 -395zM285 717q0 348 61 469 q29 63 68 88q37 22 82 22q45 -6 51 -8v-1143q-6 -6 -51 -8q-84 -4 -146 113q-63 121 -65 467z" />
<glyph unicode="&#x153;" horiz-adv-x="1470" d="M72 543q0 -170 37 -281q34 -113 90 -172q59 -59 131 -84q71 -26 149 -26q193 -3 297 143q57 -80 137 -113q76 -30 174 -30q97 2 172 20q76 18 78 20v177q-4 -2 -92 -21q-84 -20 -158 -20q-34 0 -69 10q-37 10 -68 43q-28 33 -45 96q-20 64 -20 170h512l2 68 q6 319 -88 446q-95 119 -252 117q-191 2 -281 -148q-96 150 -299 148q-78 0 -149 -23q-72 -26 -131 -90q-56 -63 -90 -172q-37 -110 -37 -278zM285 543q0 241 55 327q27 45 63 66q35 16 76 16q86 4 139 -73q54 -82 56 -336q0 -125 -17 -205q-16 -80 -45 -125 q-26 -41 -61 -59q-35 -19 -72 -19q-71 -4 -131 80q-26 45 -43 125q-20 80 -20 203zM887 612q2 193 45 273q43 75 127 73q67 2 100 -67q33 -74 33 -279h-305z" />
<glyph unicode="&#x178;" horiz-adv-x="868" d="M-20 1433l348 -843v-590h213v590l348 843h-252l-203 -655l-203 655h-251zM104 1663q0 -53 37 -88q35 -39 88 -39q56 0 90 39q35 35 37 88q-2 55 -37 90q-34 35 -90 37q-53 -2 -88 -37q-37 -35 -37 -90zM512 1663q0 -53 37 -88q35 -39 88 -39q55 0 90 39q35 35 35 88 q0 55 -35 90t-90 37q-53 -2 -88 -37q-37 -35 -37 -90z" />
<glyph unicode="&#x2c6;" horiz-adv-x="850" d="M51 1270h248l127 168l125 -168h248l-283 317h-182z" />
<glyph unicode="&#x2dc;" horiz-adv-x="737" d="M51 1327q90 61 156 61q88 -2 168 -55q76 -49 162 -49q69 0 149 53v191q-78 -51 -131 -51q-68 2 -143 49q-82 49 -183 51q-84 0 -178 -57v-193z" />
<glyph unicode="&#x2000;" horiz-adv-x="947" />
<glyph unicode="&#x2001;" horiz-adv-x="1894" />
<glyph unicode="&#x2002;" horiz-adv-x="947" />
<glyph unicode="&#x2003;" horiz-adv-x="1894" />
<glyph unicode="&#x2004;" horiz-adv-x="631" />
<glyph unicode="&#x2005;" horiz-adv-x="473" />
<glyph unicode="&#x2006;" horiz-adv-x="315" />
<glyph unicode="&#x2007;" horiz-adv-x="315" />
<glyph unicode="&#x2008;" horiz-adv-x="236" />
<glyph unicode="&#x2009;" horiz-adv-x="378" />
<glyph unicode="&#x200a;" horiz-adv-x="105" />
<glyph unicode="&#x2010;" horiz-adv-x="932" d="M129 590h674v192h-674v-192z" />
<glyph unicode="&#x2011;" horiz-adv-x="932" d="M129 590h674v192h-674v-192z" />
<glyph unicode="&#x2012;" horiz-adv-x="932" d="M129 590h674v192h-674v-192z" />
<glyph unicode="&#x2013;" horiz-adv-x="1137" d="M129 590h879v192h-879v-192z" />
<glyph unicode="&#x2014;" horiz-adv-x="1341" d="M129 590h1083v192h-1083v-192z" />
<glyph unicode="&#x2018;" horiz-adv-x="528" d="M102 870h269l34 592h-155z" />
<glyph unicode="&#x2019;" horiz-adv-x="528" d="M123 870h158l145 592h-268z" />
<glyph unicode="&#x201a;" horiz-adv-x="528" d="M123 -328h158l145 594h-268z" />
<glyph unicode="&#x201c;" horiz-adv-x="917" d="M102 870h269l34 592h-155zM491 870h269l35 592h-158z" />
<glyph unicode="&#x201d;" horiz-adv-x="917" d="M123 870h158l145 592h-268zM512 870h156l147 592h-268z" />
<glyph unicode="&#x201e;" horiz-adv-x="917" d="M123 -328h158l145 594h-268zM512 -328h156l147 594h-268z" />
<glyph unicode="&#x2022;" horiz-adv-x="719" d="M149 774q0 -92 62 -149q57 -64 149 -64q95 0 152 64q57 57 57 149t-57 152q-57 57 -152 59q-90 0 -147 -57q-64 -60 -64 -154z" />
<glyph unicode="&#x2026;" horiz-adv-x="1630" d="M149 139q0 -65 46 -110q43 -47 108 -49q70 2 111 49q41 45 43 110q-2 66 -43 111t-111 45q-65 0 -108 -45q-46 -45 -46 -111zM661 139q0 -65 48 -110q43 -47 108 -49q70 2 111 49q41 45 41 110q0 66 -41 111t-111 45q-65 0 -108 -45q-48 -45 -48 -111zM1173 139 q0 -65 48 -110q43 -47 108 -49q70 2 111 49q41 45 41 110q0 66 -41 111t-111 45q-65 0 -108 -45q-48 -45 -48 -111z" />
<glyph unicode="&#x202f;" horiz-adv-x="378" />
<glyph unicode="&#x2039;" horiz-adv-x="543" d="M72 639l379 -453v316l-181 188l181 180v316l-379 -453v-94z" />
<glyph unicode="&#x203a;" horiz-adv-x="543" d="M92 186l379 453v94l-379 453v-316l180 -180l-180 -188v-316z" />
<glyph unicode="&#x205f;" horiz-adv-x="473" />
<glyph unicode="&#x2122;" horiz-adv-x="1513" d="M41 1280h203v-707h180v707h215l-29 -707h180l7 541l204 -379l211 387l2 -549h176l-32 860h-129l-228 -417l-229 417h-731v-153z" />
<glyph unicode="&#xe000;" horiz-adv-x="1085" d="M0 1085h1085v-1085h-1085v1085z" />
<glyph unicode="&#xfb01;" horiz-adv-x="1071" d="M697 1382q0 -57 39 -92q34 -41 92 -41q57 0 94 41q35 35 35 92q0 58 -35 95q-37 34 -94 36q-58 -2 -92 -36q-39 -37 -39 -95zM721 0h213v1085h-213v-1085zM16 932h131v-932h213v932h170l25 153h-195v117q-2 127 111 127q61 0 121 -14q59 -17 61 -17v162q0 2 -57 19 q-57 14 -150 16h-7q-118 0 -201 -62q-89 -67 -91 -237v-111h-131v-153z" />
<glyph unicode="&#xfb02;" horiz-adv-x="1073" d="M721 0h213v1474h-213v-1474zM16 932h131v-932h213v932h170l25 153h-195v117q-2 127 111 127q61 0 121 -14q59 -17 61 -17v162q0 2 -57 19q-57 14 -150 16h-7q-118 0 -201 -62q-89 -67 -91 -237v-111h-131v-153z" />
<glyph unicode="&#xfb03;" horiz-adv-x="1653" d="M1279 1382q0 -57 39 -92q34 -41 92 -41q57 0 94 41q35 35 35 92q0 58 -35 95q-37 34 -94 36q-58 -2 -92 -36q-39 -37 -39 -95zM1303 0h213v1085h-213v-1085zM598 932h131v-932h213v932h170l25 153h-195v117q-2 127 111 127q61 0 121 -14q59 -17 61 -17v162q0 2 -57 19 q-57 14 -150 16h-7q-118 0 -201 -62q-89 -67 -91 -237v-111h-131v-153zM16 932h131v-932h213v932h170l25 153h-195v117q-2 127 111 127q61 0 121 -14q59 -17 61 -17v162q0 2 -57 19q-57 14 -150 16h-7q-118 0 -201 -62q-89 -67 -91 -237v-111h-131v-153z" />
<glyph unicode="&#xfb04;" horiz-adv-x="1655" d="M1303 0h213v1474h-213v-1474zM598 932h131v-932h213v932h170l25 153h-195v117q-2 127 111 127q61 0 121 -14q59 -17 61 -17v162q0 2 -57 19q-57 14 -150 16h-7q-118 0 -201 -62q-89 -67 -91 -237v-111h-131v-153zM16 932h131v-932h213v932h170l25 153h-195v117 q-2 127 111 127q61 0 121 -14q59 -17 61 -17v162q0 2 -57 19q-57 14 -150 16h-7q-118 0 -201 -62q-89 -67 -91 -237v-111h-131v-153z" />
</font>
</defs>
</svg>
